<svg width="24" height="24" viewBox="0 0 24 24" fill="none" xmlns="http://www.w3.org/2000/svg">
<path d="M15 3.5C15 4.32843 14.3284 5 13.5 5C12.6716 5 12 4.32843 12 3.5C12 2.67157 12.6716 2 13.5 2C14.3284 2 15 2.67157 15 3.5Z" fill="#313663"/>
<path fill-rule="evenodd" clip-rule="evenodd" d="M5 22C7.20914 22 9 20.2091 9 18C9 15.7909 7.20914 14 5 14C2.79086 14 1 15.7909 1 18C1 20.2091 2.79086 22 5 22ZM5 20C6.10457 20 7 19.1046 7 18C7 16.8954 6.10457 16 5 16C3.89543 16 3 16.8954 3 18C3 19.1046 3.89543 20 5 20Z" fill="#313663"/>
<path fill-rule="evenodd" clip-rule="evenodd" d="M18.724 14.0094C18.8152 14.0032 18.9072 14 19 14C21.2091 14 23 15.7909 23 18C23 20.2091 21.2091 22 19 22C16.7909 22 15 20.2091 15 18C15 16.5923 15.7272 15.3544 16.8265 14.6415L16.2094 12.7904C16.1221 12.5284 16.2637 12.2453 16.5257 12.1579L17.4744 11.8417C17.7363 11.7544 18.0195 11.896 18.1068 12.1579L18.724 14.0094ZM21 18C21 19.1046 20.1046 20 19 20C17.8954 20 17 19.1046 17 18C17 17.4908 17.1903 17.0261 17.5036 16.673L17.8932 17.8417C17.9805 18.1037 18.2637 18.2453 18.5257 18.1579L19.4744 17.8417C19.7363 17.7544 19.8779 17.4712 19.7906 17.2093L19.4009 16.0402C20.3133 16.2258 21 17.0327 21 18Z" fill="#313663"/>
<path d="M9.48663 6.60688C10.0578 5.65485 11.2952 5.35029 12.243 5.9284L14 7H16.5C16.7761 7 17 7.22386 17 7.5V9.5C17 9.77614 16.7761 10 16.5 10H13.2679C13.0924 10 12.92 9.95381 12.768 9.86606L11.4769 9.12077L10.1924 11.2615L13.9948 12.7825C14.4864 12.9791 14.7395 13.5249 14.5721 14.0272L12.5811 20.0001C12.4938 20.2621 12.2106 20.4036 11.9487 20.3163L10.0513 19.6839C9.78933 19.5965 9.64775 19.3134 9.73508 19.0514L11.1297 14.8675L7.98802 13.6108C6.84447 13.1534 6.38214 11.781 7.01581 10.7249L9.48663 6.60688Z" fill="#313663"/>
</svg>
