<svg width="24" height="24" viewBox="0 0 24 24" fill="none" xmlns="http://www.w3.org/2000/svg">
<path fill-rule="evenodd" clip-rule="evenodd" d="M8.9905 15.0016C7.0405 15.0016 6.0105 15.4416 5.1005 15.8316C4.52428 16.0808 4.00264 16.3057 3.22868 16.4214C2.88063 16.4734 2.62086 16.1313 2.73237 15.7976L3.88639 12.3432C3.95454 12.1392 4.14553 12.0016 4.36062 12.0016H5.64035C5.85545 12.0016 6.04645 11.864 6.11459 11.66L7.44231 7.68483C7.5786 7.27678 7.96059 7.00163 8.3908 7.00163H12.0005V6.31064C12.0005 6.12126 12.1075 5.94813 12.2769 5.86343L15.2769 4.36343C15.6093 4.1972 16.0005 4.43895 16.0005 4.81064V6.00163H17.2797C17.7102 6.00163 18.0923 6.27706 18.2284 6.6854L19.7726 11.3179C19.9087 11.7262 20.2908 12.0016 20.7213 12.0016H22.3061C22.6476 12.0016 22.8886 12.3364 22.7803 12.6602L22.0841 14.7418C22.0212 14.9301 21.8524 15.062 21.6555 15.0867C20.5221 15.2291 19.7778 15.5387 19.1005 15.8316L19.0951 15.8339C18.2574 16.193 17.5372 16.5016 15.9905 16.5016C14.4438 16.5016 13.7236 16.193 12.8859 15.8339L12.8805 15.8316C11.9805 15.4416 10.9505 15.0016 8.9905 15.0016ZM17.3068 12.0016C17.6481 12.0016 17.889 11.6673 17.7811 11.3435L17.1145 9.34351C17.0464 9.13934 16.8553 9.00163 16.6401 9.00163H15.0005V12.0016H17.3068ZM14.0005 9.00163H9.36088C9.14566 9.00163 8.95459 9.13934 8.88654 9.34351L8.21987 11.3435C8.11195 11.6673 8.35293 12.0016 8.69421 12.0016H14.0005V9.00163Z" fill="white"/>
<path d="M19.0951 17.8339L19.1005 17.8316C19.5102 17.6541 19.9432 17.4719 20.4758 17.3233C20.8398 17.2217 21.1454 17.5751 21.0254 17.9334L20.6056 19.1873C20.558 19.3293 20.4492 19.4422 20.3105 19.4985C20.2348 19.5292 20.1586 19.5608 20.0816 19.5928C20.0186 19.6189 19.955 19.6453 19.8905 19.6716C18.9805 20.0616 17.9505 20.5016 15.9905 20.5016C14.0405 20.5016 13.0105 20.0616 12.1005 19.6716C11.2605 19.3116 10.5305 19.0016 8.99049 19.0016C7.45381 19.0016 6.7336 19.3103 5.89592 19.6693L5.89049 19.6716C4.98049 20.0616 3.95049 20.5016 2.00049 20.5016C1.93878 20.5016 1.87834 20.5012 1.81909 20.5004C1.49415 20.4957 1.28037 20.1735 1.3836 19.8654L1.72619 18.8428C1.79447 18.639 1.98551 18.5031 2.20028 18.4947C3.22025 18.4547 4.1439 18.2416 5.10049 17.8316C6.01049 17.4416 7.04049 17.0016 8.99049 17.0016C10.9505 17.0016 11.9805 17.4416 12.8805 17.8316C13.7205 18.1916 14.4505 18.5016 15.9905 18.5016C17.5372 18.5016 18.2574 18.193 19.0951 17.8339Z" fill="white"/>
</svg>
