<svg width="24" height="24" viewBox="0 0 24 24" fill="none" xmlns="http://www.w3.org/2000/svg">
<path d="M4 6C4.82843 6 5.5 5.32843 5.5 4.5C5.5 3.67157 4.82843 3 4 3C3.17157 3 2.5 3.67157 2.5 4.5C2.5 5.32843 3.17157 6 4 6Z" fill="#313663"/>
<path d="M5.5 15.375C5.5 15.1679 5.66789 15 5.875 15H6.25C6.66421 15 7 14.6642 7 14.25V9C7 8.17157 6.32843 7.5 5.5 7.5H2.5C1.67157 7.5 1 8.17157 1 9V14.25C1 14.6642 1.33579 15 1.75 15H2.125C2.33211 15 2.5 15.1679 2.5 15.375V20.25C2.5 20.6642 2.83579 21 3.25 21H4.75C5.16421 21 5.5 20.6642 5.5 20.25V15.375Z" fill="#313663"/>
<path d="M12 6C12.8284 6 13.5 5.32843 13.5 4.5C13.5 3.67157 12.8284 3 12 3C11.1716 3 10.5 3.67157 10.5 4.5C10.5 5.32843 11.1716 6 12 6Z" fill="#313663"/>
<path d="M13.5 15.375C13.5 15.1679 13.6679 15 13.875 15H14.25C14.6642 15 15 14.6642 15 14.25V9C15 8.17157 14.3284 7.5 13.5 7.5H10.5C9.67157 7.5 9 8.17157 9 9V14.25C9 14.6642 9.33579 15 9.75 15H10.125C10.3321 15 10.5 15.1679 10.5 15.375V20.25C10.5 20.6642 10.8358 21 11.25 21H12.75C13.1642 21 13.5 20.6642 13.5 20.25V15.375Z" fill="#313663"/>
<g opacity="0.3">
<path d="M20 6C20.8284 6 21.5 5.32843 21.5 4.5C21.5 3.67157 20.8284 3 20 3C19.1716 3 18.5 3.67157 18.5 4.5C18.5 5.32843 19.1716 6 20 6Z" fill="#313663"/>
<path d="M21.5 15.375C21.5 15.1679 21.6679 15 21.875 15H22.25C22.6642 15 23 14.6642 23 14.25V9C23 8.17157 22.3284 7.5 21.5 7.5H18.5C17.6716 7.5 17 8.17157 17 9V14.25C17 14.6642 17.3358 15 17.75 15H18.125C18.3321 15 18.5 15.1679 18.5 15.375V20.25C18.5 20.6642 18.8358 21 19.25 21H20.75C21.1642 21 21.5 20.6642 21.5 20.25V15.375Z" fill="#313663"/>
</g>
</svg>
