<svg width="24" height="24" viewBox="0 0 24 24" fill="none" xmlns="http://www.w3.org/2000/svg">
<path d="M12 13.4142L17.4393 18.8536C17.6346 19.0488 17.9512 19.0488 18.1464 18.8536L18.8536 18.1464C19.0488 17.9512 19.0488 17.6346 18.8536 17.4393L13.4142 12L18.8536 6.56066C19.0488 6.3654 19.0488 6.04882 18.8536 5.85355L18.1464 5.14645C17.9512 4.95118 17.6346 4.95118 17.4393 5.14645L12 10.5858L6.56066 5.14645C6.3654 4.95118 6.04882 4.95118 5.85355 5.14645L5.14645 5.85355C4.95118 6.04882 4.95118 6.3654 5.14645 6.56066L10.5858 12L5.14645 17.4393C4.95118 17.6346 4.95118 17.9512 5.14645 18.1464L5.85355 18.8536C6.04882 19.0488 6.3654 19.0488 6.56066 18.8536L12 13.4142Z" fill="#313663"/>
</svg>
