<svg width="23" height="24" viewBox="0 0 23 24" fill="none" xmlns="http://www.w3.org/2000/svg">
<path fill-rule="evenodd" clip-rule="evenodd" d="M9.97545 21.083C10.6953 22.2632 12.3046 22.2632 13.0245 21.083C15.004 17.8379 18.2083 12.1719 18.2083 9.5C18.2083 5.63401 15.2049 2 11.5 2C7.79508 2 4.79166 5.63401 4.79166 9.5C4.79166 12.1719 7.99602 17.8379 9.97545 21.083ZM11.5 12C13.0878 12 14.375 10.6569 14.375 9C14.375 7.34315 13.0878 6 11.5 6C9.91217 6 8.62499 7.34315 8.62499 9C8.62499 10.6569 9.91217 12 11.5 12Z" fill="#313663"/>
</svg>
