<svg width="24" height="24" viewBox="0 0 24 24" fill="none" xmlns="http://www.w3.org/2000/svg">
<path fill-rule="evenodd" clip-rule="evenodd" d="M5 2C3.34315 2 2 3.34315 2 5C2 6.65685 3.34315 8 5 8C6.18064 8 7.19971 7.31719 7.68886 6.32551C7.78257 6.13552 7.96778 6 8.17963 6H17.5C18.8807 6 20 7.11929 20 8.5C20 9.88071 18.8807 11 17.5 11H6.5C4.01472 11 2 13.0147 2 15.5C2 17.9853 4.01472 20 6.5 20H15.8204C16.0322 20 16.2174 20.1355 16.3111 20.3255C16.8003 21.3172 17.8194 22 19 22C20.6569 22 22 20.6569 22 19C22 17.3431 20.6569 16 19 16C17.8194 16 16.8003 16.6828 16.3111 17.6745C16.2174 17.8645 16.0322 18 15.8204 18H6.5C5.11929 18 4 16.8807 4 15.5C4 14.1193 5.11929 13 6.5 13H17.5C19.9853 13 22 10.9853 22 8.5C22 6.01472 19.9853 4 17.5 4H8.17963C7.96778 4 7.78257 3.86448 7.68886 3.67449C7.19971 2.68281 6.18064 2 5 2ZM19 18C19.5523 18 20 18.4477 20 19C20 19.5523 19.5523 20 19 20C18.4477 20 18 19.5523 18 19C18 18.4477 18.4477 18 19 18ZM5 4C5.55228 4 6 4.44772 6 5C6 5.55228 5.55228 6 5 6C4.44772 6 4 5.55228 4 5C4 4.44772 4.44772 4 5 4Z" fill="#313663"/>
</svg>
