<svg width="24" height="24" viewBox="0 0 24 24" fill="none" xmlns="http://www.w3.org/2000/svg">
<path fill-rule="evenodd" clip-rule="evenodd" d="M13 4.5C13 4.22386 13.2239 4 13.5 4H17C17.4589 4 17.8589 4.3123 17.9701 4.75746L20.7007 15.6796C20.7513 15.8819 20.9236 16.0269 21.1256 16.0789C22.2036 16.3567 23 17.3353 23 18.5C23 19.8807 21.8807 21 20.5 21C19.1193 21 18 19.8807 18 18.5C18 17.7419 18.3374 17.0626 18.8703 16.6042L18.71 15.9632L15.7809 19.6246C15.5911 19.8618 15.3038 19.9999 15 19.9999H5.75001C5.59276 19.9999 5.44699 20.0761 5.34054 20.1919C4.88363 20.6887 4.22817 21 3.5 21C2.11929 21 1 19.8807 1 18.5C1 17.1193 2.11929 16 3.5 16C4.70946 16 5.71832 16.8588 5.94998 17.9999H14.0388C14.3425 17.9999 14.6298 17.8618 14.8196 17.6246L17.7908 13.9107C17.9858 13.6669 18.0558 13.3462 17.9801 13.0434L16.2192 6H13.5C13.2239 6 13 5.77614 13 5.5V4.5ZM3.5 19.5C4.05228 19.5 4.5 19.0523 4.5 18.5C4.5 17.9477 4.05228 17.5 3.5 17.5C2.94772 17.5 2.5 17.9477 2.5 18.5C2.5 19.0523 2.94772 19.5 3.5 19.5ZM20.5 19.5C21.0523 19.5 21.5 19.0523 21.5 18.5C21.5 17.9477 21.0523 17.5 20.5 17.5C19.9477 17.5 19.5 17.9477 19.5 18.5C19.5 19.0523 19.9477 19.5 20.5 19.5Z" fill="#313663"/>
<path d="M2.5 13C2.22386 13 2 13.2239 2 13.5V14.5C2 14.7761 2.22386 15 2.5 15H5C5.93374 15 6.71803 15.6399 6.93829 16.5051C7.00641 16.7727 7.22386 17 7.5 17H8.5C8.77614 17 9.00328 16.775 8.96918 16.501C8.72357 14.5274 7.04015 13 5 13H2.5Z" fill="#313663"/>
</svg>
