<svg width="24" height="24" viewBox="0 0 24 24" fill="none" xmlns="http://www.w3.org/2000/svg">
<path fill-rule="evenodd" clip-rule="evenodd" d="M11.2281 3.17674C11.3257 3.07913 11.4839 3.0791 11.5816 3.17669L13.4724 5.06638C13.6678 5.26163 13.6678 5.57829 13.4725 5.7736L12.2415 7.00465H19.3408C19.7407 7.00465 20.1022 7.24295 20.2598 7.61051L22.7334 13.3784C22.8945 13.7539 22.8109 14.1896 22.5223 14.4788L21.293 15.7109C21.1054 15.899 20.8507 16.0047 20.5851 16.0047H2C1.44772 16.0047 1 15.5569 1 15.0047V8.00465C1 7.45237 1.44772 7.00465 2 7.00465H10.8273L12.4113 5.42067L10.8745 3.88389C10.7768 3.78626 10.7768 3.62797 10.8745 3.53034L11.2281 3.17674ZM19.114 9.3419C19.0459 9.13773 18.8548 9.00001 18.6396 9.00001H15V12H19.6531C19.8238 12 19.9443 11.8328 19.8903 11.671L19.114 9.3419Z" fill="white"/>
<path d="M1 17.25C1 17.1119 1.11193 17 1.25 17H22.75C22.8881 17 23 17.1119 23 17.25V17.75C23 17.8881 22.8881 18 22.75 18H1.25C1.11193 18 1 17.8881 1 17.75V17.25Z" fill="white"/>
</svg>
