<svg width="24" height="24" viewBox="0 0 24 24" fill="none" xmlns="http://www.w3.org/2000/svg">
<path fill-rule="evenodd" clip-rule="evenodd" d="M10.2691 3.98966C11.0394 2.65909 12.9604 2.65909 13.7308 3.98966L21.2619 16.9979C22.0338 18.3313 21.0717 20 19.531 20H4.46881C2.92815 20 1.96603 18.3313 2.73796 16.9979L10.2691 3.98966ZM10.9999 8.5C10.9999 8.22386 11.2238 8 11.4999 8H12.4999C12.7761 8 12.9999 8.22386 12.9999 8.5V14.5C12.9999 14.7761 12.7761 15 12.4999 15H11.4999C11.2238 15 10.9999 14.7761 10.9999 14.5V8.5ZM11.9999 18C12.5522 18 12.9999 17.5523 12.9999 17C12.9999 16.4478 12.5522 16 11.9999 16C11.4476 16 10.9999 16.4478 10.9999 17C10.9999 17.5523 11.4476 18 11.9999 18Z" fill="#313663"/>
</svg>
