<svg width="24" height="24" viewBox="0 0 24 24" fill="none" xmlns="http://www.w3.org/2000/svg">
<path d="M19.3417 15.1817C19.2323 15.4353 19.3288 15.7357 19.5749 15.8609L20.4663 16.3142C20.7124 16.4394 21.0147 16.3418 21.1273 16.0897C21.3756 15.5338 21.5765 14.9473 21.7238 14.3339C21.871 13.7205 21.9583 13.1067 21.9894 12.4988C22.0035 12.223 21.7785 11.9988 21.5024 11.9986L20.5024 11.9978C20.2262 11.9976 20.0038 12.2215 19.9862 12.4971C19.9573 12.9502 19.8892 13.408 19.779 13.867C19.6688 14.326 19.5217 14.7649 19.3417 15.1817Z" fill="#313663"/>
<path d="M19.4408 9.05857C19.5426 9.31527 19.8233 9.45945 20.0859 9.37387L21.0367 9.06396C21.2992 8.97838 21.4439 8.69563 21.3453 8.43768C20.9025 7.27908 20.2476 6.21037 19.4163 5.28986C19.2312 5.08492 18.9136 5.08544 18.7182 5.28052L18.0104 5.98696C17.8149 6.18204 17.816 6.49764 17.9985 6.70487C18.6107 7.40002 19.0994 8.19746 19.4408 9.05857Z" fill="#313663"/>
<path d="M15.1824 4.65784C15.4359 4.76729 15.7363 4.67077 15.8615 4.42463L16.3148 3.53327C16.44 3.28713 16.3424 2.98489 16.0903 2.87225C15.5344 2.62392 14.9479 2.42304 14.3345 2.27577C13.7211 2.12851 13.1074 2.04123 12.4994 2.01015C12.2236 1.99605 11.9994 2.22104 11.9992 2.49718L11.9984 3.49718C11.9982 3.77333 12.2221 3.99573 12.4977 4.01331C12.9508 4.04221 13.4087 4.11032 13.8676 4.22051C14.3266 4.33071 14.7655 4.4779 15.1824 4.65784Z" fill="#313663"/>
<path d="M9.05918 4.55873C9.31588 4.45695 9.46006 4.17621 9.37448 3.91366L9.06457 2.9629C8.97899 2.70035 8.69624 2.5557 8.43829 2.65428C7.27969 3.09705 6.21098 3.75196 5.29047 4.58326C5.08553 4.76834 5.08605 5.08595 5.28113 5.2814L5.98757 5.98916C6.18265 6.18461 6.49825 6.1836 6.70548 6.00109C7.40063 5.38883 8.19807 4.90016 9.05918 4.55873Z" fill="#313663"/>
<path d="M2.27638 9.66502C2.42365 9.05161 2.62453 8.46511 2.87286 7.90929C2.9855 7.65716 3.28774 7.55957 3.53388 7.68474L4.42524 8.13804C4.67138 8.26321 4.7679 8.56367 4.65845 8.8172C4.47851 9.23403 4.33132 9.67292 4.22112 10.1319C4.11093 10.5909 4.04282 11.0488 4.01392 11.5019C3.99634 11.7775 3.77394 12.0013 3.49779 12.0011L2.4978 12.0004C2.22165 12.0001 1.99666 11.776 2.01076 11.5002C2.04184 10.8922 2.12912 10.2784 2.27638 9.66502Z" fill="#313663"/>
<path d="M14.941 19.4402C14.6843 19.542 14.5401 19.8227 14.6257 20.0853L14.9356 21.0361C15.0212 21.2986 15.3039 21.4432 15.5619 21.3447C16.7205 20.9019 17.7892 20.247 18.7097 19.4157C18.9146 19.2306 18.9141 18.913 18.719 18.7176L18.0126 18.0098C17.8175 17.8143 17.5019 17.8153 17.2947 17.9979C16.5995 18.6101 15.8021 19.0988 14.941 19.4402Z" fill="#313663"/>
<path d="M3.57133 13.9423C2.77019 14.2628 2.72375 15.3794 3.49551 15.7652L6.86247 17.4487C7.056 17.5455 7.21292 17.7024 7.30968 17.8959L8.99316 21.2629C9.37904 22.0346 10.4956 21.9882 10.8161 21.1871L14.7793 11.279C15.1058 10.4626 14.2958 9.65256 13.4794 9.97908L3.57133 13.9423Z" fill="#313663"/>
</svg>
