<svg width="24" height="24" viewBox="0 0 24 24" fill="none" xmlns="http://www.w3.org/2000/svg">
<path d="M15.5857 11L12.3536 7.76794C12.1583 7.57267 12.1583 7.25609 12.3536 7.06083L13.0607 6.35372C13.2559 6.15846 13.5725 6.15846 13.7678 6.35372L18.7071 11.293C19.0976 11.6835 19.0976 12.3167 18.7071 12.7072L13.7678 17.6465C13.5725 17.8418 13.2559 17.8418 13.0607 17.6465L12.3536 16.9394C12.1583 16.7441 12.1583 16.4276 12.3536 16.2323L15.5858 13H5.5C5.22386 13 5 12.7762 5 12.5V11.5C5 11.2239 5.22386 11 5.5 11H15.5857Z" fill="#313663"/>
</svg>
