<svg width="24" height="24" viewBox="0 0 24 24" fill="none" xmlns="http://www.w3.org/2000/svg">
<path fill-rule="evenodd" clip-rule="evenodd" d="M12 20C16.4183 20 20 16.4183 20 12C20 7.58172 16.4183 4 12 4C7.58172 4 4 7.58172 4 12C4 16.4183 7.58172 20 12 20ZM12 22C17.5228 22 22 17.5228 22 12C22 6.47715 17.5228 2 12 2C6.47715 2 2 6.47715 2 12C2 17.5228 6.47715 22 12 22Z" fill="#313663"/>
<path d="M13.25 7.75C13.25 8.44036 12.6904 9 12 9C11.3096 9 10.75 8.44036 10.75 7.75C10.75 7.05964 11.3096 6.5 12 6.5C12.6904 6.5 13.25 7.05964 13.25 7.75Z" fill="#313663"/>
<path d="M12.5 10.5H11.5C11.2239 10.5 11 10.7239 11 11V17.5C11 17.7761 11.2239 18 11.5 18H12.5C12.7761 18 13 17.7761 13 17.5V11C13 10.7239 12.7761 10.5 12.5 10.5Z" fill="#313663"/>
</svg>
