<svg width="24" height="24" viewBox="0 0 24 24" fill="none" xmlns="http://www.w3.org/2000/svg">
<path d="M12 15C13.6569 15 15 13.6569 15 12C15 10.3431 13.6569 9 12 9C10.3431 9 9 10.3431 9 12C9 13.6569 10.3431 15 12 15Z" fill="#313663"/>
<path fill-rule="evenodd" clip-rule="evenodd" d="M13 2.5C13 2.22386 12.7761 2 12.5 2H11.5C11.2239 2 11 2.22386 11 2.5V4.63726C11 4.88604 10.8164 5.09507 10.5728 5.14555C7.85201 5.70932 5.70925 7.852 5.14562 10.5727C5.09515 10.8164 4.88612 11 4.63732 11H2.5C2.22386 11 2 11.2239 2 11.5V12.5C2 12.7761 2.22386 13 2.5 13H4.63732C4.88611 13 5.09515 13.1836 5.14562 13.4273C5.70923 16.148 7.85198 18.2908 10.5727 18.8544C10.8164 18.9048 11 19.1139 11 19.3627V21.5C11 21.7761 11.2239 22 11.5 22H12.5C12.7761 22 13 21.7761 13 21.5V19.3627C13 19.1139 13.1836 18.9048 13.4273 18.8544C16.148 18.2908 18.2908 16.148 18.8544 13.4273C18.9048 13.1836 19.1139 13 19.3627 13H21.5C21.7761 13 22 12.7761 22 12.5V11.5C22 11.2239 21.7761 11 21.5 11H19.3627C19.1139 11 18.9048 10.8164 18.8544 10.5727C18.2908 7.852 16.148 5.70932 13.4272 5.14555C13.1836 5.09507 13 4.88604 13 4.63726V2.5ZM17 12C17 14.7615 14.7614 17 12 17C9.23857 17 7 14.7615 7 12C7 9.23853 9.23857 7 12 7C14.7614 7 17 9.23853 17 12Z" fill="#313663"/>
</svg>
